/* XPM */
static char *f4e925c690594f0ae972ff5f804ddc24zj18rNEBSMIbI5rq[] = {
/* columns rows colors chars-per-pixel */
"64 64 221 2 ",
"   c None",
".  c #987040",
"X  c #987041",
"o  c #997141",
"O  c #9A7141",
"+  c #997142",
"@  c #9A7142",
"#  c #9A7242",
"$  c #9B7242",
"%  c #9A7243",
"&  c #9B7243",
"*  c #9B7343",
"=  c #9C7343",
"-  c #9C7443",
";  c #9C7444",
":  c #9D7444",
">  c #9D7544",
",  c #9D7545",
"<  c #9E7545",
"1  c #9E7645",
"2  c #9F7645",
"3  c #9F7646",
"4  c #9F7746",
"5  c #A07646",
"6  c #A07746",
"7  c #A07847",
"8  c #A17847",
"9  c #A07947",
"0  c #A17947",
"q  c #A27847",
"w  c #A27947",
"e  c #A17948",
"r  c #A27948",
"t  c #A37948",
"y  c #A27A48",
"u  c #A37A48",
"i  c #A37B49",
"p  c #A47948",
"a  c #A47A48",
"s  c #A57B49",
"d  c #A47C49",
"f  c #A57C49",
"g  c #A47C4A",
"h  c #A57C4A",
"j  c #A57D4A",
"k  c #A57D4B",
"l  c #A67C4A",
"z  c #A67D4A",
"x  c #A67D4B",
"c  c #A67E4B",
"v  c #A77E4B",
"b  c #A77F4B",
"n  c #A67F4C",
"m  c #A77F4C",
"M  c #A87E4B",
"N  c #A87F4C",
"B  c #A97F4C",
"V  c #AA7F4C",
"C  c #A7804D",
"Z  c #A8804D",
"A  c #A9814D",
"S  c #AB804C",
"D  c #AA804D",
"F  c #AB804D",
"G  c #AB814D",
"H  c #AB814E",
"J  c #AA824E",
"K  c #AB834F",
"L  c #AC814E",
"P  c #AC824E",
"I  c #AD824E",
"U  c #AC834F",
"Y  c #AD834F",
"T  c #AB844F",
"R  c #AC844F",
"E  c #AC8450",
"W  c #AD8550",
"Q  c #AD8551",
"!  c #AF8450",
"~  c #AF8550",
"^  c #AE8651",
"/  c #AF8752",
"(  c #B08551",
")  c #B18651",
"_  c #B28752",
"`  c #B08852",
"'  c #B18953",
"]  c #B38853",
"[  c #B48853",
"{  c #B48953",
"}  c #B28A54",
"|  c #B38B55",
" . c #B58A54",
".. c #B68A54",
"X. c #B78B55",
"o. c #B38C55",
"O. c #B48C55",
"+. c #B78C55",
"@. c #B48C56",
"#. c #B58D56",
"$. c #B58D57",
"%. c #B68E57",
"&. c #B78F57",
"*. c #B88B55",
"=. c #B88C55",
"-. c #B88C56",
";. c #B98C56",
":. c #BA8D57",
">. c #BB8E57",
",. c #B78F58",
"<. c #BB8E58",
"1. c #BB8F58",
"2. c #BC8F58",
"3. c #B89058",
"4. c #B89059",
"5. c #B99159",
"6. c #BA925A",
"7. c #BB935A",
"8. c #BB935B",
"9. c #BF925A",
"0. c #BF925B",
"q. c #BF935B",
"w. c #BC945B",
"e. c #BC955B",
"r. c #BD945C",
"t. c #BD955C",
"y. c #C0935B",
"u. c #C1945B",
"i. c #C1945C",
"p. c #C2955D",
"a. c #C2965D",
"s. c #C3965D",
"d. c #C5975E",
"f. c #C5985F",
"g. c #C6985F",
"h. c #C6995F",
"j. c #C89A61",
"k. c #C89B61",
"l. c #C99B61",
"z. c #CA9C62",
"x. c #CB9D62",
"c. c #CB9D63",
"v. c #CC9E63",
"b. c #CC9E64",
"n. c #CD9F64",
"m. c #CE9F64",
"M. c #CFA165",
"N. c #D0A165",
"B. c #D0A166",
"V. c #D0A266",
"C. c #D1A266",
"Z. c #D1A267",
"A. c #D2A367",
"S. c #D3A367",
"D. c #D3A468",
"F. c #D4A569",
"G. c #D5A569",
"H. c #D5A669",
"J. c #D6A76A",
"K. c #D7A76A",
"L. c #D7A86A",
"P. c #D8A86B",
"I. c #D8A96B",
"U. c #D9AA6C",
"Y. c #DAAA6C",
"T. c #DAAA6D",
"R. c #DAAB6D",
"E. c #DBAB6D",
"W. c #DCAB6D",
"Q. c #DCAC6D",
"!. c #DDAD6E",
"~. c #DEAD6F",
"^. c #DEAE6F",
"/. c #DFAE6F",
"(. c #DFAE70",
"). c #DFAF70",
"_. c #E0AF70",
"`. c #E0B070",
"'. c #E2B271",
"]. c #E3B271",
"[. c #E2B272",
"{. c #E3B272",
"}. c #E4B372",
"|. c #E4B373",
" X c #E4B473",
".X c #E5B474",
"XX c #E6B574",
"oX c #E8B775",
"OX c #E8B776",
"+X c #E9B776",
"@X c #E9B876",
"#X c #EAB876",
"$X c #EAB877",
"%X c #ECBA78",
"&X c #ECBB79",
"*X c #EDBB79",
"=X c #EFBC7A",
"-X c #EFBD7A",
";X c #F1BE7B",
":X c #F1BE7C",
">X c #F1BF7C",
",X c #F2BF7C",
"<X c #F4C27E",
"1X c #F5C27E",
"2X c #F5C27F",
"3X c #F6C37F",
"4X c #F7C480",
"5X c #F8C480",
"6X c #F8C580",
"7X c #F8C581",
"8X c #F9C681",
"9X c #FAC682",
"0X c #FAC782",
"qX c #FBC883",
"wX c #FCC883",
"eX c #FCC983",
"rX c #FDC983",
"tX c #FDCA83",
"yX c #FCC984",
"uX c #FECA84",
"iX c #FECA85",
/* pixels */
"                                                                                                                                ",
"                                                    E.L.D.M.M.j.h.a.0.2.;.{                                                     ",
"                                            $X X[.[./.L.G.D.Z.v.l.h.a.0.1.;.{ ) L L                                             ",
"                                        <X=X%X$X X[.)./.E.G.D.M.v.l.d.a.9.1.;.{ ) L B v l                                       ",
"                                    qX3X<X=X=X$X$X X|._./.P.L.D.M.v.j.j.a.9.1.*.] ) ! H l u 6                                   ",
"                                uXuXwX9X3X<X<X=X%X$X.X[.).            l.d.a.9.1.;.{ ) L B l u 3                                 ",
"                            4X9XwXwXtXqXqX3X<X<X                                1.*.{ ) L B v w 3 *                             ",
"                          ,X<X4XqXwXtXwXqXqX                                          { ) L M l w 3 *                           ",
"                        %X=X,X<X3X9XwXuX                                                  ) L H l 6 ; * *                       ",
"                      .X+X%X;X,X<X9X                                                          L B l w 3 * *                     ",
"                    (.[..X+X$X;X                                                                L B l u - * .                   ",
"                  P.E.(.[..X+X                                                                    L B l w - * *                 ",
"                Z.G.P.E.(.[.                                                                        L H v w 3 *                 ",
"              k.M.Z.G.P.E.                                                        { ! H v             L M l 6 3 *               ",
"              h.k.v.Z.G.                                                D.M.l.a.y.;.[ )                 L H v 6 3 *             ",
"            9.a.j.k.n.                                            |._.W.G.D.v.l.d.9.;.                    L M l w 3 3           ",
"          ;.5.y.a.h.l.                                          =X.X|.[./.G.Z.M.l.a.                        L H v w 3           ",
"          { *.>.9.a.                    /.|.+X                <X;X%X+X X/./.G.Z.n.                            L M l w 3         ",
"        L ! ] +.9.              j.k.Z.G.E.).[.              wX9X<X;X=X.X[._.E.L.Z.                            ) L H l p         ",
"        M H ! [ {               y.d.n.Z.G.E./.            wXuXwX9X<X;X%X+X|.(.W.                                ) Y M v l       ",
"      3 u M H !                 >.a.d.v.Z.G.            <X9XwXuXqX9X<X;X%X$X X                                  ] ) L Z l       ",
"      * 6 u v H                 { 2.y.d.k.Z.            ,X<X9X9XwXwX9X<X;X=X                                      [ ) Y M       ",
"      . * 3 w                   ) { 5.y.l.k.          +X%X,X<X9XwXtXqX3X<X                                        +.] ] Y L     ",
"    * . * * 6                 v V ) +.;.u.h.        (.|.$X%X,X<XqXwXtXwX                                          ;.;.[ ) L     ",
"    * * X X *                 3 l V ) { 2.p.    M.G.W.(. X+X%X<X<X9XuX                                              2.{ { )     ",
"    3 * * X                   * 6 l V ) { 2.p.j.k.Z.G.E.).[.$X%X<X<X                                                y.;.;.[ ]   ",
"    3 ; ; *                   . @ 3 l V ) { 2.p.h.v.Z.G././.|.+X%X                                                  a.y.2.;.{   ",
"  u 4 3 3 ;                   * X @ 5 l V ) { 2.y.h.k.Z.G.P./.|.                                                    h.a.9.5.;.  ",
"  v u 4 4 3                   3 @ X X 3 u H ) { ;.u.d.k.Z.G.P.[.|.                                                    h.a.9.1.  ",
"  d d u 4 4                   3 3 @ . * 3 l B ! [ 9.a.h.v.Z.G.E./.[.                                                  l.d.a.0.  ",
"  v d d d 4                 u 4 3 ; @ X * ; l B ) [ 9.a.h.v.Z.G.E.).[.                                                v.l.d.a.  ",
"  H C d d u                 n v 4 4 3 * . * 3 l H ! [ ;.y.h.l.Z.G.E.(.                                                Z.k.l.j.  ",
"  T C v d v                 C d d u 4 ; *       l B ) { 1.y.d.l.Z.G.E./.                                              D.Z.v.l.  ",
"  T H C n v                 Q C n k 4 3           l V ) { 2.p.j.k.M.G.E.(.                                            L.D.M.v.  ",
"  ! Q H H n                 Q Q C n u u           u l V ) { 2.a.h.v.Z.G.E.).                                          P.L.D.Z.  ",
"  ` Q T H H                 ! Q Q C v v             6 l V ) { 2.a.h.k.Z.G.E.).                                        /.E.G.D.  ",
"    ` ! Q C               o.] ' Q T C C               6 l M ) { 1.a.j.k.M.G././.                                    [._./.E.L.  ",
"    ' ` Q Q               ,.$.] ! Q T Z               ; 6 p V ) { ;.a.d.k.Z.G.E.(.                                   X|./.E.E.  ",
"    ] ' ` Q               5.,.o.] ` Y T                 * 3 l B ) { 9.9.h.k.M.G.P.`.                                +X X[.[./.  ",
"    o.' ` ` `             6.,.,.o.o.` !                   X 3 l V ) { 1.u.j.b.M.G.E./.                              %X+X X[.    ",
"    +.o.] ' `                                             * X 3 l B ) { 2.p.j.l.n.G.E.(.                          ,X=X$X$X X    ",
"      ,.o.o.]                                               . * 6 l V ) *.2.0.j.n.B.G.E./.                        <X<X=X$X$X    ",
"      ,.$.o.] '                                               . @ 3 l B ) { 1.p.d.l.Z.G.E./.                      3X<X;X;X      ",
"      5.,.$.o.o.                                              * X @ 5 l V ( { 2.p.l.k.M.G.E./.                  wX9X9X<X<X      ",
"        ,.,.,.$.o.                                              @ X X 3 l B ) { >.y.d.l.Z.G.P./.                uXwX9X3X<X      ",
"        6.,.,.$.+.                                                @ . * 3 l B ! { 2.9.j.k.Z.G.E.).              uXwXqX9X        ",
"          6.,.,.o.o.                                              3 * . * 3 l B ) { 2.p.j.k.Z.G.E./.            uXuXuXwX        ",
"          8.6.,.,.,.+.                                              @ * . X 3 l V ) { 9.p.d.v.Z.G.E.                            ",
"            8.5.5.,.$.                                                - * X X 3 l V ) { ;.p.j.l.M.L.E.                          ",
"              r.6.5.,.,.                                              3 - * X X 6 l B ) { ;.y.d.k.Z.G.E.                        ",
"              r.8.8.,.,.+.                                              3 ; * . X 6 l B ) *.2.p.h.v.M.G.E.                      ",
"                r.r.8.,.,.,.                                              4 * * X X 3 v B ) *.2.p.h.k.Z.G.E.                    ",
"                  t.8.8.,.,.,.                                            w 4 3 @ . X 6 l M ( { 1.y.d.l.Z.G.P.                  ",
"                    r.r.5.5.,.,.$.                                          w 4 3 * X X 6 l V ) { 1.p.j.l.Z.G.E.                ",
"                      r.r.5.,.,.,.]                                           w 3 3 @ X * - l B ) { 2.p.d.v.Z.G.E.              ",
"                        r.r.6.,.,.@.,.o.                                        4 3 3 @ X . 3 l B ) { 2.y.h.l.Z.G.E.            ",
"                          e.e.8.,.,.,.] ] '                                         3 3 * . * 3 v L ) { ;.a.l.k.M.G.E.          ",
"                              8.6.5.,.,.o.o.' ' !                                                                               ",
"                                r.5.,.,.$.o.] ' ` ! T T H C                                                                     ",
"                                    5.5.,.$.$.' ' ` ! T H H C v v w w 3                                                         ",
"                                        5.,.$.$.' ' ` Q Q H C C k d u w                                                         ",
"                                              ,.o.o.' ! Q Q T C C d d u                                                         ",
"                                                      ] ! ! T H C n v                                                           ",
"                                                                                                                                "
};
