/* XPM */
static char *c044a7fa1b3b41ebc161364a704b865dX9xo73aSFSlcZK96[] = {
/* columns rows colors chars-per-pixel */
"32 32 127 2 ",
"   c None",
".  c #997141",
"X  c #997142",
"o  c #9A7242",
"O  c #9A7243",
"+  c #9B7243",
"@  c #9B7343",
"#  c #9C7343",
"$  c #9C7443",
"%  c #9C7344",
"&  c #9E7645",
"*  c #9F7645",
"=  c #9F7646",
"-  c #9F7746",
";  c #A07846",
":  c #A07847",
">  c #A17847",
",  c #A27948",
"<  c #A27A48",
"1  c #A37B48",
"2  c #A37B49",
"3  c #A47A48",
"4  c #A57B49",
"5  c #A47C4A",
"6  c #A57D4B",
"7  c #A67C4A",
"8  c #A77D4B",
"9  c #A67E4B",
"0  c #A87E4B",
"q  c #A9814D",
"w  c #AA804D",
"e  c #AB804D",
"r  c #AB814D",
"t  c #AC814D",
"y  c #AC814E",
"u  c #AD834F",
"i  c #AE834F",
"p  c #AC8450",
"a  c #AD8550",
"s  c #AE8651",
"d  c #AF8752",
"f  c #B08551",
"g  c #B18551",
"h  c #B38752",
"j  c #B08853",
"k  c #B38852",
"l  c #B38853",
"z  c #B48953",
"x  c #B58953",
"c  c #B28A54",
"v  c #B38B54",
"b  c #B38B55",
"n  c #B48954",
"m  c #B58D56",
"M  c #B58D57",
"N  c #B68E57",
"B  c #BB8E58",
"V  c #BB8F58",
"C  c #BC8F58",
"Z  c #B89059",
"A  c #B99159",
"S  c #BA925A",
"D  c #BB935B",
"F  c #BE9159",
"G  c #BD915A",
"H  c #BF925A",
"J  c #BC945B",
"K  c #C1945C",
"L  c #C2955D",
"P  c #C3965D",
"I  c #C4965E",
"U  c #C4975E",
"Y  c #C5985F",
"T  c #C6985F",
"R  c #C89A60",
"E  c #C89A61",
"W  c #C89B61",
"Q  c #C99B61",
"!  c #CA9C62",
"~  c #CB9D63",
"^  c #CEA064",
"/  c #D0A165",
"(  c #D0A166",
")  c #D1A267",
"_  c #D1A367",
"`  c #D2A367",
"'  c #D3A468",
"]  c #D5A669",
"[  c #D6A76A",
"{  c #D8A86B",
"}  c #D8A96B",
"|  c #D9A96C",
" . c #D9AA6C",
".. c #DAAA6C",
"X. c #DAAB6D",
"o. c #DBAB6D",
"O. c #DCAB6D",
"+. c #DBAC6D",
"@. c #DCAC6E",
"#. c #DDAC6E",
"$. c #DDAD6E",
"%. c #DFAE70",
"&. c #DFAF70",
"*. c #E1B071",
"=. c #E2B172",
"-. c #E3B272",
";. c #E4B373",
":. c #E5B474",
">. c #E9B776",
",. c #E9B876",
"<. c #ECBA78",
"1. c #ECBB79",
"2. c #EDBB79",
"3. c #EFBD7A",
"4. c #F0BD7B",
"5. c #F0BE7B",
"6. c #F2BF7C",
"7. c #F4C27E",
"8. c #F5C27E",
"9. c #F5C27F",
"0. c #F7C480",
"q. c #F8C480",
"w. c #F9C681",
"e. c #FBC882",
"r. c #FBC883",
"t. c #FCC883",
"y. c #FDC984",
/* pixels */
"                              ~ U                               ",
"                    7.:.;.$.] _ ! P V z f 0                     ",
"                y.q.9.3.,.-.$.] ~ ! P B z y 3 >                 ",
"              0.y.y.q.                    h s 6 >               ",
"            <.6.q.                            y 3 > .           ",
"          %.:.<.                                y 6 & .         ",
"        _ { %.                                    y 0 >         ",
"      P ! _                       $.' ! H z         0 6 &       ",
"    n V P                       <.:.O._ !             y 6 >     ",
"    y l         R ^ X.        r.9.<.-.$.                y 0     ",
"    3 r         V U _       0.t.r.9.<.                  z i 0   ",
"  . # ,         g V R     ;.<.9.r.r.                      n y   ",
"  . .           3 g V U _ X.;.<.9.                        B l   ",
"  : $         . % 3 s V U / X.-.                          P V   ",
"  , -         & % % 3 g B R ~ X.-.                        ! P H ",
"  9 2         2 & . % 6 g V ! / X.                        ~ ! P ",
"  r 6         r , >     6 f C Y ^ X.                      ] _ ! ",
"  p r         s r 6       6 g C R ^ X.                    +.] _ ",
"  s s         c s r         6 g B U _ {                   -.$.  ",
"  c s       G N l s         . 6 g B U _ X.                >.-.  ",
"  N c l                       % 3 g V U _ X.              3.,.  ",
"    M c                         # 6 s H U / X.          q.9.5.  ",
"    A M M                       . % 3 g B R / X.        y.q.    ",
"      A N                         . % 3 g B R ~ X.              ",
"      G G M                         % % 3 g V Y _ {             ",
"        D A N                       & . % 3 g G R ^ {           ",
"          D G M                       - % . 3 g V U _ {         ",
"            D A N                       & % % 3 s B U _ {       ",
"              D A M c d                     . % 0 g H ! '       ",
"                A G M c d p r 6 , :                             ",
"                      N c d s r 6 ,                             ",
"                                                                "
};
