/* XPM */
static char *_e87cb37dd1544bdd605209a7af1e6657pvyX4cQwr04BnHz[] = {
/* columns rows colors chars-per-pixel */
"16 16 52 1 ",
"  c None",
". c #9B7342",
"X c #9B7343",
"o c #9C7344",
"O c #9C7444",
"+ c #9D7544",
"@ c #9E7545",
"# c #A37A48",
"$ c #A57B49",
"% c #A47C4A",
"& c #A57C4A",
"* c #A67C4A",
"= c #A77D4B",
"- c #A77E4B",
"; c #AB804D",
": c #AB834F",
"> c #AE8651",
", c #B28752",
"< c #B08853",
"1 c #B48953",
"2 c #B38B55",
"3 c #B78C55",
"4 c #B58D56",
"5 c #B88C56",
"6 c #B98D56",
"7 c #BA8D57",
"8 c #B78F58",
"9 c #BB8F58",
"0 c #BC8F58",
"q c #BC8F59",
"w c #B99159",
"e c #BD9159",
"r c #C4975E",
"t c #CB9D63",
"y c #CEA065",
"u c #CFA065",
"i c #CFA165",
"p c #D0A165",
"a c #D0A166",
"s c #D1A267",
"d c #D2A367",
"f c #DBAB6D",
"g c #DCAD6E",
"h c #DFAF6F",
"j c #E4B373",
"k c #E7B574",
"l c #ECBA78",
"z c #ECBB79",
"x c #F3C17D",
"c c #F4C27E",
"v c #F9C681",
"b c #FBC883",
/* pixels */
"      hsr6      ",
"    bck  e,-    ",
"   l        $@  ",
"  s       6  $  ",
" 1      lf    - ",
" #  qt cv     , ",
"@.  %7sj       6",
"%   @%7sg      r",
":  >% -es      s",
"<> 4,  %9i     g",
" 2      %qs   c ",
" 8      X%6s  b ",
"  w      o%qi   ",
"   w      +%qi  ",
"    82,         ",
"      ,:%       "
};
